<mxfile host="app.diagrams.net" modified="2023-11-10T21:23:24.217Z" agent="Mozilla/5.0 (Windows NT 10.0; Win64; x64) AppleWebKit/537.36 (KHTML, like Gecko) Chrome/119.0.0.0 Safari/537.36" etag="iO3nCsfxHjMCB3hABqUy" version="22.1.0" type="github">
  <diagram id="C5RBs43oDa-KdzZeNtuy" name="Page-1">
    <mxGraphModel dx="2185" dy="596" grid="1" gridSize="10" guides="1" tooltips="1" connect="1" arrows="1" fold="1" page="1" pageScale="1" pageWidth="827" pageHeight="1169" math="0" shadow="0">
      <root>
        <mxCell id="WIyWlLk6GJQsqaUBKTNV-0" />
        <mxCell id="WIyWlLk6GJQsqaUBKTNV-1" parent="WIyWlLk6GJQsqaUBKTNV-0" />
        <mxCell id="GdlKHdJ9aNy-TUZx2jLR-0" value="User" style="swimlane;fontStyle=0;childLayout=stackLayout;horizontal=1;startSize=30;horizontalStack=0;resizeParent=1;resizeParentMax=0;resizeLast=0;collapsible=1;marginBottom=0;whiteSpace=wrap;html=1;" vertex="1" parent="WIyWlLk6GJQsqaUBKTNV-1">
          <mxGeometry x="200" y="440" width="140" height="240" as="geometry" />
        </mxCell>
        <mxCell id="GdlKHdJ9aNy-TUZx2jLR-1" value="id&amp;nbsp; &amp;nbsp;(int)" style="text;strokeColor=none;fillColor=none;align=left;verticalAlign=middle;spacingLeft=4;spacingRight=4;overflow=hidden;points=[[0,0.5],[1,0.5]];portConstraint=eastwest;rotatable=0;whiteSpace=wrap;html=1;" vertex="1" parent="GdlKHdJ9aNy-TUZx2jLR-0">
          <mxGeometry y="30" width="140" height="30" as="geometry" />
        </mxCell>
        <mxCell id="GdlKHdJ9aNy-TUZx2jLR-2" value="Nom (varchar)" style="text;strokeColor=none;fillColor=none;align=left;verticalAlign=middle;spacingLeft=4;spacingRight=4;overflow=hidden;points=[[0,0.5],[1,0.5]];portConstraint=eastwest;rotatable=0;whiteSpace=wrap;html=1;" vertex="1" parent="GdlKHdJ9aNy-TUZx2jLR-0">
          <mxGeometry y="60" width="140" height="30" as="geometry" />
        </mxCell>
        <mxCell id="GdlKHdJ9aNy-TUZx2jLR-4" value="Prénom (varchar)&lt;br&gt;&lt;br&gt;&lt;br&gt;&lt;br&gt;&lt;br&gt;" style="text;strokeColor=none;fillColor=none;align=left;verticalAlign=middle;spacingLeft=4;spacingRight=4;overflow=hidden;points=[[0,0.5],[1,0.5]];portConstraint=eastwest;rotatable=0;whiteSpace=wrap;html=1;" vertex="1" parent="GdlKHdJ9aNy-TUZx2jLR-0">
          <mxGeometry y="90" width="140" as="geometry" />
        </mxCell>
        <mxCell id="GdlKHdJ9aNy-TUZx2jLR-3" value="Prénom (varchar)&lt;br&gt;&lt;br&gt;Mail (varchar)&lt;br&gt;&lt;br&gt;num_telephone (int)&lt;br&gt;&lt;br&gt;Avis (varchar)&lt;br&gt;&lt;br&gt;modification (varchar)&lt;br&gt;" style="text;strokeColor=none;fillColor=none;align=left;verticalAlign=middle;spacingLeft=4;spacingRight=4;overflow=hidden;points=[[0,0.5],[1,0.5]];portConstraint=eastwest;rotatable=0;whiteSpace=wrap;html=1;" vertex="1" parent="GdlKHdJ9aNy-TUZx2jLR-0">
          <mxGeometry y="90" width="140" height="150" as="geometry" />
        </mxCell>
        <mxCell id="GdlKHdJ9aNy-TUZx2jLR-5" value="Location" style="swimlane;fontStyle=0;childLayout=stackLayout;horizontal=1;startSize=30;horizontalStack=0;resizeParent=1;resizeParentMax=0;resizeLast=0;collapsible=1;marginBottom=0;whiteSpace=wrap;html=1;" vertex="1" parent="WIyWlLk6GJQsqaUBKTNV-1">
          <mxGeometry x="580" y="190" width="140" height="220" as="geometry" />
        </mxCell>
        <mxCell id="GdlKHdJ9aNy-TUZx2jLR-6" value="id&amp;nbsp; &amp;nbsp;(int)" style="text;strokeColor=none;fillColor=none;align=left;verticalAlign=middle;spacingLeft=4;spacingRight=4;overflow=hidden;points=[[0,0.5],[1,0.5]];portConstraint=eastwest;rotatable=0;whiteSpace=wrap;html=1;" vertex="1" parent="GdlKHdJ9aNy-TUZx2jLR-5">
          <mxGeometry y="30" width="140" height="30" as="geometry" />
        </mxCell>
        <mxCell id="GdlKHdJ9aNy-TUZx2jLR-7" value="Debut_Loc (int)&lt;br&gt;&lt;br&gt;id_user (varchar)&lt;br&gt;&lt;br&gt;id_voitures (varchar)&lt;br&gt;&lt;br&gt;Fin_Loc (int)" style="text;strokeColor=none;fillColor=none;align=left;verticalAlign=middle;spacingLeft=4;spacingRight=4;overflow=hidden;points=[[0,0.5],[1,0.5]];portConstraint=eastwest;rotatable=0;whiteSpace=wrap;html=1;" vertex="1" parent="GdlKHdJ9aNy-TUZx2jLR-5">
          <mxGeometry y="60" width="140" height="150" as="geometry" />
        </mxCell>
        <mxCell id="GdlKHdJ9aNy-TUZx2jLR-8" value="Prénom (varchar)&lt;br&gt;&lt;br&gt;&lt;br&gt;&lt;br&gt;&lt;br&gt;" style="text;strokeColor=none;fillColor=none;align=left;verticalAlign=middle;spacingLeft=4;spacingRight=4;overflow=hidden;points=[[0,0.5],[1,0.5]];portConstraint=eastwest;rotatable=0;whiteSpace=wrap;html=1;" vertex="1" parent="GdlKHdJ9aNy-TUZx2jLR-5">
          <mxGeometry y="210" width="140" as="geometry" />
        </mxCell>
        <mxCell id="GdlKHdJ9aNy-TUZx2jLR-9" value="&lt;br&gt;&lt;br&gt;" style="text;strokeColor=none;fillColor=none;align=left;verticalAlign=middle;spacingLeft=4;spacingRight=4;overflow=hidden;points=[[0,0.5],[1,0.5]];portConstraint=eastwest;rotatable=0;whiteSpace=wrap;html=1;" vertex="1" parent="GdlKHdJ9aNy-TUZx2jLR-5">
          <mxGeometry y="210" width="140" height="10" as="geometry" />
        </mxCell>
        <mxCell id="GdlKHdJ9aNy-TUZx2jLR-10" value="Avis" style="swimlane;fontStyle=0;childLayout=stackLayout;horizontal=1;startSize=30;horizontalStack=0;resizeParent=1;resizeParentMax=0;resizeLast=0;collapsible=1;marginBottom=0;whiteSpace=wrap;html=1;" vertex="1" parent="WIyWlLk6GJQsqaUBKTNV-1">
          <mxGeometry x="590" y="570" width="140" height="110" as="geometry" />
        </mxCell>
        <mxCell id="GdlKHdJ9aNy-TUZx2jLR-11" value="id&amp;nbsp; &amp;nbsp;(int)" style="text;strokeColor=none;fillColor=none;align=left;verticalAlign=middle;spacingLeft=4;spacingRight=4;overflow=hidden;points=[[0,0.5],[1,0.5]];portConstraint=eastwest;rotatable=0;whiteSpace=wrap;html=1;" vertex="1" parent="GdlKHdJ9aNy-TUZx2jLR-10">
          <mxGeometry y="30" width="140" height="30" as="geometry" />
        </mxCell>
        <mxCell id="GdlKHdJ9aNy-TUZx2jLR-12" value="commentaires (varchar)" style="text;strokeColor=none;fillColor=none;align=left;verticalAlign=middle;spacingLeft=4;spacingRight=4;overflow=hidden;points=[[0,0.5],[1,0.5]];portConstraint=eastwest;rotatable=0;whiteSpace=wrap;html=1;" vertex="1" parent="GdlKHdJ9aNy-TUZx2jLR-10">
          <mxGeometry y="60" width="140" height="40" as="geometry" />
        </mxCell>
        <mxCell id="GdlKHdJ9aNy-TUZx2jLR-13" value="Prénom (varchar)&lt;br&gt;&lt;br&gt;&lt;br&gt;&lt;br&gt;&lt;br&gt;" style="text;strokeColor=none;fillColor=none;align=left;verticalAlign=middle;spacingLeft=4;spacingRight=4;overflow=hidden;points=[[0,0.5],[1,0.5]];portConstraint=eastwest;rotatable=0;whiteSpace=wrap;html=1;" vertex="1" parent="GdlKHdJ9aNy-TUZx2jLR-10">
          <mxGeometry y="100" width="140" as="geometry" />
        </mxCell>
        <mxCell id="GdlKHdJ9aNy-TUZx2jLR-14" value="&lt;br&gt;&lt;br&gt;" style="text;strokeColor=none;fillColor=none;align=left;verticalAlign=middle;spacingLeft=4;spacingRight=4;overflow=hidden;points=[[0,0.5],[1,0.5]];portConstraint=eastwest;rotatable=0;whiteSpace=wrap;html=1;" vertex="1" parent="GdlKHdJ9aNy-TUZx2jLR-10">
          <mxGeometry y="100" width="140" height="10" as="geometry" />
        </mxCell>
        <mxCell id="GdlKHdJ9aNy-TUZx2jLR-16" value="Marques" style="swimlane;fontStyle=0;childLayout=stackLayout;horizontal=1;startSize=30;horizontalStack=0;resizeParent=1;resizeParentMax=0;resizeLast=0;collapsible=1;marginBottom=0;whiteSpace=wrap;html=1;" vertex="1" parent="WIyWlLk6GJQsqaUBKTNV-1">
          <mxGeometry x="1430" y="155" width="140" height="210" as="geometry" />
        </mxCell>
        <mxCell id="GdlKHdJ9aNy-TUZx2jLR-17" value="id&amp;nbsp; &amp;nbsp;(int)" style="text;strokeColor=none;fillColor=none;align=left;verticalAlign=middle;spacingLeft=4;spacingRight=4;overflow=hidden;points=[[0,0.5],[1,0.5]];portConstraint=eastwest;rotatable=0;whiteSpace=wrap;html=1;" vertex="1" parent="GdlKHdJ9aNy-TUZx2jLR-16">
          <mxGeometry y="30" width="140" height="30" as="geometry" />
        </mxCell>
        <mxCell id="GdlKHdJ9aNy-TUZx2jLR-18" value="Places (int)&lt;br&gt;&lt;br&gt;Couleurs (varchar)&lt;br&gt;&lt;br&gt;Portes (int)&lt;br&gt;&lt;br&gt;voiture (varchar)" style="text;strokeColor=none;fillColor=none;align=left;verticalAlign=middle;spacingLeft=4;spacingRight=4;overflow=hidden;points=[[0,0.5],[1,0.5]];portConstraint=eastwest;rotatable=0;whiteSpace=wrap;html=1;" vertex="1" parent="GdlKHdJ9aNy-TUZx2jLR-16">
          <mxGeometry y="60" width="140" height="150" as="geometry" />
        </mxCell>
        <mxCell id="GdlKHdJ9aNy-TUZx2jLR-19" value="Prénom (varchar)&lt;br&gt;&lt;br&gt;&lt;br&gt;&lt;br&gt;&lt;br&gt;" style="text;strokeColor=none;fillColor=none;align=left;verticalAlign=middle;spacingLeft=4;spacingRight=4;overflow=hidden;points=[[0,0.5],[1,0.5]];portConstraint=eastwest;rotatable=0;whiteSpace=wrap;html=1;" vertex="1" parent="GdlKHdJ9aNy-TUZx2jLR-16">
          <mxGeometry y="210" width="140" as="geometry" />
        </mxCell>
        <mxCell id="GdlKHdJ9aNy-TUZx2jLR-21" value="Favoris" style="swimlane;fontStyle=0;childLayout=stackLayout;horizontal=1;startSize=30;horizontalStack=0;resizeParent=1;resizeParentMax=0;resizeLast=0;collapsible=1;marginBottom=0;whiteSpace=wrap;html=1;" vertex="1" parent="WIyWlLk6GJQsqaUBKTNV-1">
          <mxGeometry x="580" y="450" width="140" height="90" as="geometry" />
        </mxCell>
        <mxCell id="GdlKHdJ9aNy-TUZx2jLR-22" value="id&amp;nbsp; &amp;nbsp;(int)" style="text;strokeColor=none;fillColor=none;align=left;verticalAlign=middle;spacingLeft=4;spacingRight=4;overflow=hidden;points=[[0,0.5],[1,0.5]];portConstraint=eastwest;rotatable=0;whiteSpace=wrap;html=1;" vertex="1" parent="GdlKHdJ9aNy-TUZx2jLR-21">
          <mxGeometry y="30" width="140" height="30" as="geometry" />
        </mxCell>
        <mxCell id="GdlKHdJ9aNy-TUZx2jLR-23" value="etoiles (int)" style="text;strokeColor=none;fillColor=none;align=left;verticalAlign=middle;spacingLeft=4;spacingRight=4;overflow=hidden;points=[[0,0.5],[1,0.5]];portConstraint=eastwest;rotatable=0;whiteSpace=wrap;html=1;" vertex="1" parent="GdlKHdJ9aNy-TUZx2jLR-21">
          <mxGeometry y="60" width="140" height="20" as="geometry" />
        </mxCell>
        <mxCell id="GdlKHdJ9aNy-TUZx2jLR-24" value="Prénom (varchar)&lt;br&gt;&lt;br&gt;&lt;br&gt;&lt;br&gt;&lt;br&gt;" style="text;strokeColor=none;fillColor=none;align=left;verticalAlign=middle;spacingLeft=4;spacingRight=4;overflow=hidden;points=[[0,0.5],[1,0.5]];portConstraint=eastwest;rotatable=0;whiteSpace=wrap;html=1;" vertex="1" parent="GdlKHdJ9aNy-TUZx2jLR-21">
          <mxGeometry y="80" width="140" as="geometry" />
        </mxCell>
        <mxCell id="GdlKHdJ9aNy-TUZx2jLR-25" value="&lt;br&gt;&lt;br&gt;" style="text;strokeColor=none;fillColor=none;align=left;verticalAlign=middle;spacingLeft=4;spacingRight=4;overflow=hidden;points=[[0,0.5],[1,0.5]];portConstraint=eastwest;rotatable=0;whiteSpace=wrap;html=1;" vertex="1" parent="GdlKHdJ9aNy-TUZx2jLR-21">
          <mxGeometry y="80" width="140" height="10" as="geometry" />
        </mxCell>
        <mxCell id="GdlKHdJ9aNy-TUZx2jLR-26" value="Voitures" style="swimlane;fontStyle=0;childLayout=stackLayout;horizontal=1;startSize=30;horizontalStack=0;resizeParent=1;resizeParentMax=0;resizeLast=0;collapsible=1;marginBottom=0;whiteSpace=wrap;html=1;" vertex="1" parent="WIyWlLk6GJQsqaUBKTNV-1">
          <mxGeometry x="850" y="170" width="140" height="360" as="geometry" />
        </mxCell>
        <mxCell id="GdlKHdJ9aNy-TUZx2jLR-27" value="id&amp;nbsp; &amp;nbsp;(int)" style="text;strokeColor=none;fillColor=none;align=left;verticalAlign=middle;spacingLeft=4;spacingRight=4;overflow=hidden;points=[[0,0.5],[1,0.5]];portConstraint=eastwest;rotatable=0;whiteSpace=wrap;html=1;" vertex="1" parent="GdlKHdJ9aNy-TUZx2jLR-26">
          <mxGeometry y="30" width="140" height="30" as="geometry" />
        </mxCell>
        <mxCell id="GdlKHdJ9aNy-TUZx2jLR-29" value="Prénom (varchar)&lt;br&gt;&lt;br&gt;&lt;br&gt;&lt;br&gt;&lt;br&gt;" style="text;strokeColor=none;fillColor=none;align=left;verticalAlign=middle;spacingLeft=4;spacingRight=4;overflow=hidden;points=[[0,0.5],[1,0.5]];portConstraint=eastwest;rotatable=0;whiteSpace=wrap;html=1;" vertex="1" parent="GdlKHdJ9aNy-TUZx2jLR-26">
          <mxGeometry y="60" width="140" as="geometry" />
        </mxCell>
        <mxCell id="GdlKHdJ9aNy-TUZx2jLR-28" value="Places (int)&lt;br&gt;&lt;br&gt;portes (int)&lt;br&gt;&lt;br&gt;couleurs (int)&lt;br&gt;&lt;br&gt;marques (varchar)&lt;br&gt;&lt;br&gt;prix (int)&lt;br&gt;&lt;br&gt;photo(varchar)&lt;br&gt;&lt;br&gt;avis(varchar)&lt;br&gt;&lt;br&gt;location(int)&lt;br&gt;&lt;br&gt;favoris (int)&lt;br&gt;&lt;br&gt;avis(varchar)" style="text;strokeColor=none;fillColor=none;align=left;verticalAlign=middle;spacingLeft=4;spacingRight=4;overflow=hidden;points=[[0,0.5],[1,0.5]];portConstraint=eastwest;rotatable=0;whiteSpace=wrap;html=1;" vertex="1" parent="GdlKHdJ9aNy-TUZx2jLR-26">
          <mxGeometry y="60" width="140" height="290" as="geometry" />
        </mxCell>
        <mxCell id="GdlKHdJ9aNy-TUZx2jLR-30" value="&lt;br&gt;&lt;br&gt;" style="text;strokeColor=none;fillColor=none;align=left;verticalAlign=middle;spacingLeft=4;spacingRight=4;overflow=hidden;points=[[0,0.5],[1,0.5]];portConstraint=eastwest;rotatable=0;whiteSpace=wrap;html=1;" vertex="1" parent="GdlKHdJ9aNy-TUZx2jLR-26">
          <mxGeometry y="350" width="140" height="10" as="geometry" />
        </mxCell>
        <mxCell id="GdlKHdJ9aNy-TUZx2jLR-31" value="Couleurs" style="swimlane;fontStyle=0;childLayout=stackLayout;horizontal=1;startSize=30;horizontalStack=0;resizeParent=1;resizeParentMax=0;resizeLast=0;collapsible=1;marginBottom=0;whiteSpace=wrap;html=1;" vertex="1" parent="WIyWlLk6GJQsqaUBKTNV-1">
          <mxGeometry x="1180" y="270" width="140" height="110" as="geometry" />
        </mxCell>
        <mxCell id="GdlKHdJ9aNy-TUZx2jLR-32" value="id&amp;nbsp; &amp;nbsp;(int)" style="text;strokeColor=none;fillColor=none;align=left;verticalAlign=middle;spacingLeft=4;spacingRight=4;overflow=hidden;points=[[0,0.5],[1,0.5]];portConstraint=eastwest;rotatable=0;whiteSpace=wrap;html=1;" vertex="1" parent="GdlKHdJ9aNy-TUZx2jLR-31">
          <mxGeometry y="30" width="140" height="30" as="geometry" />
        </mxCell>
        <mxCell id="GdlKHdJ9aNy-TUZx2jLR-33" value="nom-couleurs (varchar)" style="text;strokeColor=none;fillColor=none;align=left;verticalAlign=middle;spacingLeft=4;spacingRight=4;overflow=hidden;points=[[0,0.5],[1,0.5]];portConstraint=eastwest;rotatable=0;whiteSpace=wrap;html=1;" vertex="1" parent="GdlKHdJ9aNy-TUZx2jLR-31">
          <mxGeometry y="60" width="140" height="40" as="geometry" />
        </mxCell>
        <mxCell id="GdlKHdJ9aNy-TUZx2jLR-34" value="Prénom (varchar)&lt;br&gt;&lt;br&gt;&lt;br&gt;&lt;br&gt;&lt;br&gt;" style="text;strokeColor=none;fillColor=none;align=left;verticalAlign=middle;spacingLeft=4;spacingRight=4;overflow=hidden;points=[[0,0.5],[1,0.5]];portConstraint=eastwest;rotatable=0;whiteSpace=wrap;html=1;" vertex="1" parent="GdlKHdJ9aNy-TUZx2jLR-31">
          <mxGeometry y="100" width="140" as="geometry" />
        </mxCell>
        <mxCell id="GdlKHdJ9aNy-TUZx2jLR-35" value="&lt;br&gt;&lt;br&gt;" style="text;strokeColor=none;fillColor=none;align=left;verticalAlign=middle;spacingLeft=4;spacingRight=4;overflow=hidden;points=[[0,0.5],[1,0.5]];portConstraint=eastwest;rotatable=0;whiteSpace=wrap;html=1;" vertex="1" parent="GdlKHdJ9aNy-TUZx2jLR-31">
          <mxGeometry y="100" width="140" height="10" as="geometry" />
        </mxCell>
        <mxCell id="GdlKHdJ9aNy-TUZx2jLR-37" value="Places" style="swimlane;fontStyle=0;childLayout=stackLayout;horizontal=1;startSize=30;horizontalStack=0;resizeParent=1;resizeParentMax=0;resizeLast=0;collapsible=1;marginBottom=0;whiteSpace=wrap;html=1;" vertex="1" parent="WIyWlLk6GJQsqaUBKTNV-1">
          <mxGeometry x="1320" y="530" width="140" height="110" as="geometry" />
        </mxCell>
        <mxCell id="GdlKHdJ9aNy-TUZx2jLR-38" value="id&amp;nbsp; &amp;nbsp;(int)" style="text;strokeColor=none;fillColor=none;align=left;verticalAlign=middle;spacingLeft=4;spacingRight=4;overflow=hidden;points=[[0,0.5],[1,0.5]];portConstraint=eastwest;rotatable=0;whiteSpace=wrap;html=1;" vertex="1" parent="GdlKHdJ9aNy-TUZx2jLR-37">
          <mxGeometry y="30" width="140" height="30" as="geometry" />
        </mxCell>
        <mxCell id="GdlKHdJ9aNy-TUZx2jLR-39" value="nb_de_places (int)" style="text;strokeColor=none;fillColor=none;align=left;verticalAlign=middle;spacingLeft=4;spacingRight=4;overflow=hidden;points=[[0,0.5],[1,0.5]];portConstraint=eastwest;rotatable=0;whiteSpace=wrap;html=1;" vertex="1" parent="GdlKHdJ9aNy-TUZx2jLR-37">
          <mxGeometry y="60" width="140" height="40" as="geometry" />
        </mxCell>
        <mxCell id="GdlKHdJ9aNy-TUZx2jLR-40" value="Prénom (varchar)&lt;br&gt;&lt;br&gt;&lt;br&gt;&lt;br&gt;&lt;br&gt;" style="text;strokeColor=none;fillColor=none;align=left;verticalAlign=middle;spacingLeft=4;spacingRight=4;overflow=hidden;points=[[0,0.5],[1,0.5]];portConstraint=eastwest;rotatable=0;whiteSpace=wrap;html=1;" vertex="1" parent="GdlKHdJ9aNy-TUZx2jLR-37">
          <mxGeometry y="100" width="140" as="geometry" />
        </mxCell>
        <mxCell id="GdlKHdJ9aNy-TUZx2jLR-41" value="&lt;br&gt;&lt;br&gt;" style="text;strokeColor=none;fillColor=none;align=left;verticalAlign=middle;spacingLeft=4;spacingRight=4;overflow=hidden;points=[[0,0.5],[1,0.5]];portConstraint=eastwest;rotatable=0;whiteSpace=wrap;html=1;" vertex="1" parent="GdlKHdJ9aNy-TUZx2jLR-37">
          <mxGeometry y="100" width="140" height="10" as="geometry" />
        </mxCell>
        <mxCell id="GdlKHdJ9aNy-TUZx2jLR-45" value="" style="endArrow=none;html=1;rounded=0;entryX=0;entryY=0;entryDx=0;entryDy=0;exitX=1;exitY=0.076;exitDx=0;exitDy=0;exitPerimeter=0;" edge="1" parent="WIyWlLk6GJQsqaUBKTNV-1" source="GdlKHdJ9aNy-TUZx2jLR-0" target="GdlKHdJ9aNy-TUZx2jLR-21">
          <mxGeometry width="50" height="50" relative="1" as="geometry">
            <mxPoint x="140" y="610" as="sourcePoint" />
            <mxPoint x="190" y="560" as="targetPoint" />
            <Array as="points" />
          </mxGeometry>
        </mxCell>
        <mxCell id="GdlKHdJ9aNy-TUZx2jLR-46" value="" style="endArrow=none;html=1;rounded=0;exitX=1;exitY=0;exitDx=0;exitDy=0;entryX=0.009;entryY=0.44;entryDx=0;entryDy=0;entryPerimeter=0;" edge="1" parent="WIyWlLk6GJQsqaUBKTNV-1" source="GdlKHdJ9aNy-TUZx2jLR-0" target="GdlKHdJ9aNy-TUZx2jLR-7">
          <mxGeometry width="50" height="50" relative="1" as="geometry">
            <mxPoint x="620" y="390" as="sourcePoint" />
            <mxPoint x="200" y="210" as="targetPoint" />
            <Array as="points">
              <mxPoint x="450" y="320" />
            </Array>
          </mxGeometry>
        </mxCell>
        <mxCell id="GdlKHdJ9aNy-TUZx2jLR-47" value="" style="endArrow=none;html=1;rounded=0;entryX=0;entryY=0;entryDx=0;entryDy=0;exitX=1.011;exitY=0.091;exitDx=0;exitDy=0;exitPerimeter=0;" edge="1" parent="WIyWlLk6GJQsqaUBKTNV-1" source="GdlKHdJ9aNy-TUZx2jLR-0" target="GdlKHdJ9aNy-TUZx2jLR-10">
          <mxGeometry width="50" height="50" relative="1" as="geometry">
            <mxPoint x="160" y="410" as="sourcePoint" />
            <mxPoint x="670" y="580" as="targetPoint" />
          </mxGeometry>
        </mxCell>
        <mxCell id="GdlKHdJ9aNy-TUZx2jLR-48" value="" style="endArrow=none;html=1;rounded=0;exitX=0.996;exitY=0.586;exitDx=0;exitDy=0;exitPerimeter=0;entryX=0.011;entryY=0.062;entryDx=0;entryDy=0;entryPerimeter=0;" edge="1" parent="WIyWlLk6GJQsqaUBKTNV-1" source="GdlKHdJ9aNy-TUZx2jLR-7" target="GdlKHdJ9aNy-TUZx2jLR-26">
          <mxGeometry width="50" height="50" relative="1" as="geometry">
            <mxPoint x="620" y="410" as="sourcePoint" />
            <mxPoint x="670" y="360" as="targetPoint" />
          </mxGeometry>
        </mxCell>
        <mxCell id="GdlKHdJ9aNy-TUZx2jLR-49" value="" style="endArrow=none;html=1;rounded=0;exitX=1;exitY=0.5;exitDx=0;exitDy=0;entryX=-0.011;entryY=0.071;entryDx=0;entryDy=0;entryPerimeter=0;" edge="1" parent="WIyWlLk6GJQsqaUBKTNV-1" source="GdlKHdJ9aNy-TUZx2jLR-27" target="GdlKHdJ9aNy-TUZx2jLR-16">
          <mxGeometry width="50" height="50" relative="1" as="geometry">
            <mxPoint x="860" y="320" as="sourcePoint" />
            <mxPoint x="670" y="420" as="targetPoint" />
          </mxGeometry>
        </mxCell>
        <mxCell id="GdlKHdJ9aNy-TUZx2jLR-51" value="" style="endArrow=none;html=1;rounded=0;entryX=0.25;entryY=0;entryDx=0;entryDy=0;" edge="1" parent="WIyWlLk6GJQsqaUBKTNV-1" source="GdlKHdJ9aNy-TUZx2jLR-28" target="GdlKHdJ9aNy-TUZx2jLR-37">
          <mxGeometry width="50" height="50" relative="1" as="geometry">
            <mxPoint x="910" y="570" as="sourcePoint" />
            <mxPoint x="960" y="520" as="targetPoint" />
          </mxGeometry>
        </mxCell>
        <mxCell id="GdlKHdJ9aNy-TUZx2jLR-52" value="" style="endArrow=none;html=1;rounded=0;entryX=-0.012;entryY=0.857;entryDx=0;entryDy=0;entryPerimeter=0;" edge="1" parent="WIyWlLk6GJQsqaUBKTNV-1" source="GdlKHdJ9aNy-TUZx2jLR-21" target="GdlKHdJ9aNy-TUZx2jLR-28">
          <mxGeometry width="50" height="50" relative="1" as="geometry">
            <mxPoint x="700" y="490" as="sourcePoint" />
            <mxPoint x="750" y="440" as="targetPoint" />
          </mxGeometry>
        </mxCell>
        <mxCell id="GdlKHdJ9aNy-TUZx2jLR-58" value="&lt;font style=&quot;font-size: 18px;&quot;&gt;loue&lt;/font&gt;" style="text;html=1;strokeColor=none;fillColor=none;align=center;verticalAlign=middle;whiteSpace=wrap;rounded=0;" vertex="1" parent="WIyWlLk6GJQsqaUBKTNV-1">
          <mxGeometry x="400" y="285" width="60" height="30" as="geometry" />
        </mxCell>
        <mxCell id="GdlKHdJ9aNy-TUZx2jLR-59" value="&lt;font style=&quot;font-size: 18px;&quot;&gt;mettre&lt;/font&gt;" style="text;html=1;strokeColor=none;fillColor=none;align=center;verticalAlign=middle;whiteSpace=wrap;rounded=0;" vertex="1" parent="WIyWlLk6GJQsqaUBKTNV-1">
          <mxGeometry x="440" y="390" width="60" height="30" as="geometry" />
        </mxCell>
        <mxCell id="GdlKHdJ9aNy-TUZx2jLR-61" value="&lt;font style=&quot;font-size: 18px;&quot;&gt;donne&lt;/font&gt;" style="text;html=1;strokeColor=none;fillColor=none;align=center;verticalAlign=middle;whiteSpace=wrap;rounded=0;" vertex="1" parent="WIyWlLk6GJQsqaUBKTNV-1">
          <mxGeometry x="490" y="550" width="60" height="30" as="geometry" />
        </mxCell>
        <mxCell id="GdlKHdJ9aNy-TUZx2jLR-62" value="Admin" style="swimlane;fontStyle=0;childLayout=stackLayout;horizontal=1;startSize=30;horizontalStack=0;resizeParent=1;resizeParentMax=0;resizeLast=0;collapsible=1;marginBottom=0;whiteSpace=wrap;html=1;" vertex="1" parent="WIyWlLk6GJQsqaUBKTNV-1">
          <mxGeometry x="-180" y="410" width="140" height="140" as="geometry" />
        </mxCell>
        <mxCell id="GdlKHdJ9aNy-TUZx2jLR-63" value="id&amp;nbsp; &amp;nbsp;(int)" style="text;strokeColor=none;fillColor=none;align=left;verticalAlign=middle;spacingLeft=4;spacingRight=4;overflow=hidden;points=[[0,0.5],[1,0.5]];portConstraint=eastwest;rotatable=0;whiteSpace=wrap;html=1;" vertex="1" parent="GdlKHdJ9aNy-TUZx2jLR-62">
          <mxGeometry y="30" width="140" height="30" as="geometry" />
        </mxCell>
        <mxCell id="GdlKHdJ9aNy-TUZx2jLR-64" value="Nom (varchar)&lt;br&gt;&lt;br&gt;Mot de passe (varchar)" style="text;strokeColor=none;fillColor=none;align=left;verticalAlign=middle;spacingLeft=4;spacingRight=4;overflow=hidden;points=[[0,0.5],[1,0.5]];portConstraint=eastwest;rotatable=0;whiteSpace=wrap;html=1;" vertex="1" parent="GdlKHdJ9aNy-TUZx2jLR-62">
          <mxGeometry y="60" width="140" height="70" as="geometry" />
        </mxCell>
        <mxCell id="GdlKHdJ9aNy-TUZx2jLR-65" value="Prénom (varchar)&lt;br&gt;&lt;br&gt;&lt;br&gt;&lt;br&gt;&lt;br&gt;" style="text;strokeColor=none;fillColor=none;align=left;verticalAlign=middle;spacingLeft=4;spacingRight=4;overflow=hidden;points=[[0,0.5],[1,0.5]];portConstraint=eastwest;rotatable=0;whiteSpace=wrap;html=1;" vertex="1" parent="GdlKHdJ9aNy-TUZx2jLR-62">
          <mxGeometry y="130" width="140" as="geometry" />
        </mxCell>
        <mxCell id="GdlKHdJ9aNy-TUZx2jLR-66" value="&lt;br&gt;&lt;br&gt;" style="text;strokeColor=none;fillColor=none;align=left;verticalAlign=middle;spacingLeft=4;spacingRight=4;overflow=hidden;points=[[0,0.5],[1,0.5]];portConstraint=eastwest;rotatable=0;whiteSpace=wrap;html=1;" vertex="1" parent="GdlKHdJ9aNy-TUZx2jLR-62">
          <mxGeometry y="130" width="140" height="10" as="geometry" />
        </mxCell>
        <mxCell id="GdlKHdJ9aNy-TUZx2jLR-67" value="" style="endArrow=none;html=1;rounded=0;entryX=-0.011;entryY=0.089;entryDx=0;entryDy=0;entryPerimeter=0;" edge="1" parent="WIyWlLk6GJQsqaUBKTNV-1" source="GdlKHdJ9aNy-TUZx2jLR-62" target="GdlKHdJ9aNy-TUZx2jLR-0">
          <mxGeometry width="50" height="50" relative="1" as="geometry">
            <mxPoint x="370" y="460" as="sourcePoint" />
            <mxPoint x="420" y="410" as="targetPoint" />
          </mxGeometry>
        </mxCell>
        <mxCell id="GdlKHdJ9aNy-TUZx2jLR-68" value="" style="endArrow=none;html=1;rounded=0;entryX=0.009;entryY=0.171;entryDx=0;entryDy=0;entryPerimeter=0;exitX=1.023;exitY=0.272;exitDx=0;exitDy=0;exitPerimeter=0;" edge="1" parent="WIyWlLk6GJQsqaUBKTNV-1" source="GdlKHdJ9aNy-TUZx2jLR-28" target="GdlKHdJ9aNy-TUZx2jLR-31">
          <mxGeometry width="50" height="50" relative="1" as="geometry">
            <mxPoint x="930" y="420" as="sourcePoint" />
            <mxPoint x="980" y="370" as="targetPoint" />
          </mxGeometry>
        </mxCell>
        <mxCell id="GdlKHdJ9aNy-TUZx2jLR-69" value="1,N" style="text;html=1;strokeColor=none;fillColor=none;align=center;verticalAlign=middle;whiteSpace=wrap;rounded=0;" vertex="1" parent="WIyWlLk6GJQsqaUBKTNV-1">
          <mxGeometry x="-50" y="440" width="60" height="30" as="geometry" />
        </mxCell>
        <mxCell id="GdlKHdJ9aNy-TUZx2jLR-70" value="0, N" style="text;html=1;strokeColor=none;fillColor=none;align=center;verticalAlign=middle;whiteSpace=wrap;rounded=0;" vertex="1" parent="WIyWlLk6GJQsqaUBKTNV-1">
          <mxGeometry x="140" y="430" width="60" height="30" as="geometry" />
        </mxCell>
        <mxCell id="GdlKHdJ9aNy-TUZx2jLR-71" value="0,N" style="text;html=1;strokeColor=none;fillColor=none;align=center;verticalAlign=middle;whiteSpace=wrap;rounded=0;" vertex="1" parent="WIyWlLk6GJQsqaUBKTNV-1">
          <mxGeometry x="300" y="400" width="60" height="30" as="geometry" />
        </mxCell>
        <mxCell id="GdlKHdJ9aNy-TUZx2jLR-72" value="1,1" style="text;html=1;strokeColor=none;fillColor=none;align=center;verticalAlign=middle;whiteSpace=wrap;rounded=0;" vertex="1" parent="WIyWlLk6GJQsqaUBKTNV-1">
          <mxGeometry x="530" y="180" width="60" height="30" as="geometry" />
        </mxCell>
        <mxCell id="GdlKHdJ9aNy-TUZx2jLR-73" value="Connexion" style="swimlane;fontStyle=0;childLayout=stackLayout;horizontal=1;startSize=30;horizontalStack=0;resizeParent=1;resizeParentMax=0;resizeLast=0;collapsible=1;marginBottom=0;whiteSpace=wrap;html=1;" vertex="1" parent="WIyWlLk6GJQsqaUBKTNV-1">
          <mxGeometry x="520" y="770" width="140" height="90" as="geometry" />
        </mxCell>
        <mxCell id="GdlKHdJ9aNy-TUZx2jLR-74" value="id&amp;nbsp; &amp;nbsp;(int)" style="text;strokeColor=none;fillColor=none;align=left;verticalAlign=middle;spacingLeft=4;spacingRight=4;overflow=hidden;points=[[0,0.5],[1,0.5]];portConstraint=eastwest;rotatable=0;whiteSpace=wrap;html=1;" vertex="1" parent="GdlKHdJ9aNy-TUZx2jLR-73">
          <mxGeometry y="30" width="140" height="30" as="geometry" />
        </mxCell>
        <mxCell id="GdlKHdJ9aNy-TUZx2jLR-75" value="pas_connecté (varchar)" style="text;strokeColor=none;fillColor=none;align=left;verticalAlign=middle;spacingLeft=4;spacingRight=4;overflow=hidden;points=[[0,0.5],[1,0.5]];portConstraint=eastwest;rotatable=0;whiteSpace=wrap;html=1;" vertex="1" parent="GdlKHdJ9aNy-TUZx2jLR-73">
          <mxGeometry y="60" width="140" height="20" as="geometry" />
        </mxCell>
        <mxCell id="GdlKHdJ9aNy-TUZx2jLR-76" value="Prénom (varchar)&lt;br&gt;&lt;br&gt;&lt;br&gt;&lt;br&gt;&lt;br&gt;" style="text;strokeColor=none;fillColor=none;align=left;verticalAlign=middle;spacingLeft=4;spacingRight=4;overflow=hidden;points=[[0,0.5],[1,0.5]];portConstraint=eastwest;rotatable=0;whiteSpace=wrap;html=1;" vertex="1" parent="GdlKHdJ9aNy-TUZx2jLR-73">
          <mxGeometry y="80" width="140" as="geometry" />
        </mxCell>
        <mxCell id="GdlKHdJ9aNy-TUZx2jLR-77" value="&lt;br&gt;&lt;br&gt;" style="text;strokeColor=none;fillColor=none;align=left;verticalAlign=middle;spacingLeft=4;spacingRight=4;overflow=hidden;points=[[0,0.5],[1,0.5]];portConstraint=eastwest;rotatable=0;whiteSpace=wrap;html=1;" vertex="1" parent="GdlKHdJ9aNy-TUZx2jLR-73">
          <mxGeometry y="80" width="140" height="10" as="geometry" />
        </mxCell>
        <mxCell id="GdlKHdJ9aNy-TUZx2jLR-78" value="" style="endArrow=none;html=1;rounded=0;exitX=0.999;exitY=0.971;exitDx=0;exitDy=0;exitPerimeter=0;entryX=0;entryY=0;entryDx=0;entryDy=0;" edge="1" parent="WIyWlLk6GJQsqaUBKTNV-1" source="GdlKHdJ9aNy-TUZx2jLR-3" target="GdlKHdJ9aNy-TUZx2jLR-73">
          <mxGeometry width="50" height="50" relative="1" as="geometry">
            <mxPoint x="540" y="680" as="sourcePoint" />
            <mxPoint x="590" y="630" as="targetPoint" />
          </mxGeometry>
        </mxCell>
        <mxCell id="GdlKHdJ9aNy-TUZx2jLR-79" value="0,N" style="text;html=1;strokeColor=none;fillColor=none;align=center;verticalAlign=middle;whiteSpace=wrap;rounded=0;" vertex="1" parent="WIyWlLk6GJQsqaUBKTNV-1">
          <mxGeometry x="354" y="420" width="60" height="30" as="geometry" />
        </mxCell>
        <mxCell id="GdlKHdJ9aNy-TUZx2jLR-80" value="0,N" style="text;html=1;strokeColor=none;fillColor=none;align=center;verticalAlign=middle;whiteSpace=wrap;rounded=0;" vertex="1" parent="WIyWlLk6GJQsqaUBKTNV-1">
          <mxGeometry x="380" y="460" width="60" height="30" as="geometry" />
        </mxCell>
        <mxCell id="GdlKHdJ9aNy-TUZx2jLR-81" value="0,N" style="text;html=1;strokeColor=none;fillColor=none;align=center;verticalAlign=middle;whiteSpace=wrap;rounded=0;" vertex="1" parent="WIyWlLk6GJQsqaUBKTNV-1">
          <mxGeometry x="354" y="650" width="60" height="30" as="geometry" />
        </mxCell>
        <mxCell id="GdlKHdJ9aNy-TUZx2jLR-82" value="1,1" style="text;html=1;strokeColor=none;fillColor=none;align=center;verticalAlign=middle;whiteSpace=wrap;rounded=0;" vertex="1" parent="WIyWlLk6GJQsqaUBKTNV-1">
          <mxGeometry x="720" y="170" width="60" height="30" as="geometry" />
        </mxCell>
        <mxCell id="GdlKHdJ9aNy-TUZx2jLR-83" value="" style="endArrow=none;html=1;rounded=0;entryX=0.018;entryY=0.962;entryDx=0;entryDy=0;entryPerimeter=0;" edge="1" parent="WIyWlLk6GJQsqaUBKTNV-1" target="GdlKHdJ9aNy-TUZx2jLR-28">
          <mxGeometry width="50" height="50" relative="1" as="geometry">
            <mxPoint x="730" y="620" as="sourcePoint" />
            <mxPoint x="780" y="570" as="targetPoint" />
          </mxGeometry>
        </mxCell>
      </root>
    </mxGraphModel>
  </diagram>
</mxfile>
